<?xml version="1.0" standalone="no"?>
<!DOCTYPE svg PUBLIC "-//W3C//DTD SVG 20010904//EN"
 "http://www.w3.org/TR/2001/REC-SVG-20010904/DTD/svg10.dtd">
<svg version="1.0" xmlns="http://www.w3.org/2000/svg"
 width="471.000000pt" height="229.000000pt" viewBox="0 0 471.000000 229.000000"
 preserveAspectRatio="xMidYMid meet">

<g transform="translate(0.000000,229.000000) scale(0.100000,-0.100000)"
fill="#000000" stroke="none">
<path d="M237 2216 c-117 -42 -197 -156 -197 -283 0 -62 34 -144 83 -195 23
-25 213 -173 422 -329 209 -155 551 -410 760 -566 209 -155 483 -359 608 -453
268 -199 326 -231 432 -238 67 -4 80 -2 141 27 37 17 169 108 298 204 127 94
348 260 492 367 144 107 488 363 763 569 276 205 517 392 536 414 68 79 87
209 46 303 -55 124 -195 201 -317 174 -80 -18 -130 -47 -314 -185 -96 -72
-274 -205 -395 -295 -232 -173 -614 -458 -1004 -748 -221 -165 -235 -174 -256
-161 -22 14 -359 264 -1313 978 -298 222 -514 376 -557 397 -56 28 -81 34
-130 34 -33 -1 -77 -7 -98 -14z"/>
</g>
</svg>
