<?xml version="1.0" standalone="no"?>
<!DOCTYPE svg PUBLIC "-//W3C//DTD SVG 20010904//EN"
 "http://www.w3.org/TR/2001/REC-SVG-20010904/DTD/svg10.dtd">
<svg version="1.0" xmlns="http://www.w3.org/2000/svg"
 width="394.000000pt" height="437.000000pt" viewBox="0 0 394.000000 437.000000"
 preserveAspectRatio="xMidYMid meet">

<g transform="translate(0.000000,437.000000) scale(0.100000,-0.100000)"
fill="#000000" stroke="none">
<path d="M1220 4075 l0 -255 1095 0 1095 0 0 -1645 0 -1645 -1095 0 -1095 0 0
-255 0 -255 1350 0 1350 0 0 2155 0 2155 -1350 0 -1350 0 0 -255z"/>
<path d="M1700 2821 c-76 -23 -127 -70 -160 -145 -26 -59 -22 -125 14 -202
l24 -51 -457 -6 c-251 -4 -562 -7 -691 -7 -129 0 -279 -3 -332 -7 l-98 -6 0
-249 0 -248 258 1 c141 1 491 4 777 8 286 4 521 6 522 6 2 -1 -6 -19 -17 -40
-30 -59 -27 -147 8 -216 53 -106 163 -155 277 -126 78 20 767 384 827 436 123
109 138 270 36 386 -45 51 -112 92 -308 190 -74 38 -210 108 -303 157 -228
121 -297 143 -377 119z"/>
</g>
</svg>
