<?xml version="1.0" standalone="no"?>
<!DOCTYPE svg PUBLIC "-//W3C//DTD SVG 20010904//EN"
 "http://www.w3.org/TR/2001/REC-SVG-20010904/DTD/svg10.dtd">
<svg version="1.0" xmlns="http://www.w3.org/2000/svg"
 width="451.000000pt" height="482.000000pt" viewBox="0 0 451.000000 482.000000"
 preserveAspectRatio="xMidYMid meet">

<g transform="translate(0.000000,482.000000) scale(0.100000,-0.100000)"
fill="#000000" stroke="none">
<path d="M1724 4790 c-830 -73 -1502 -665 -1664 -1467 -108 -535 36 -1096 387
-1513 93 -111 177 -191 294 -282 105 -81 174 -122 330 -198 264 -127 516 -183
819 -183 304 0 621 78 859 210 61 34 64 35 81 17 10 -11 259 -305 555 -654
296 -349 545 -643 554 -653 16 -16 30 -6 261 193 135 116 249 217 254 224 6 9
-154 204 -558 680 l-567 667 39 47 c70 87 165 250 222 384 267 623 158 1351
-277 1868 -126 150 -294 296 -439 383 -102 61 -303 154 -404 187 -232 76 -519
110 -746 90z m321 -630 c241 -35 452 -126 629 -275 421 -351 552 -921 326
-1412 -117 -251 -332 -467 -585 -583 -445 -206 -963 -141 -1329 165 -522 435
-583 1187 -139 1697 199 228 477 371 798 411 63 8 233 6 300 -3z"/>
</g>
</svg>
